<svg width="20" height="20" viewBox="0 0 131 188" fill="none" xmlns="http://www.w3.org/2000/svg">
<path d="M130.036 75.0781V112.6L97.5043 93.8871L130.036 75.0781Z" fill="white"/>
<path d="M130.036 75.0333L97.5043 93.8423V56.3203L130.036 75.0333Z" fill="white"/>
<path d="M130.036 112.572L97.5043 131.381V93.8594L130.036 112.572Z" fill="white"/>
<path d="M97.4952 131.398V169.016L64.9634 150.207L97.4952 131.398Z" fill="white"/>
<path d="M97.4952 56.3203V93.8423L64.9634 75.0333L97.4952 56.3203Z" fill="white"/>
<path d="M97.4952 18.7578V56.3757L64.9634 37.5668L97.4952 18.7578Z" fill="white"/>
<path d="M97.4952 18.713L64.9634 37.522V0L97.4952 18.713Z" fill="white"/>
<path d="M97.4952 168.985L64.9634 187.698V150.176L97.4952 168.985Z" fill="white"/>
<path d="M64.9804 150.18V187.702L32.4486 168.989L64.9804 150.18Z" fill="white"/>
<path d="M64.9804 0V37.522L32.4486 18.713L64.9804 0Z" fill="white"/>
<path d="M64.0996 36.8871L31.5677 55.6961V18.0781L64.0996 36.8871Z" fill="white"/>
<path d="M64.9804 112.572L32.4486 131.381V93.8594L64.9804 112.572Z" fill="white"/>
<path d="M64.9804 150.207L32.4486 169.016V131.398L64.9804 150.207Z" fill="white"/>
<path d="M32.4358 93.8594V131.381L0 112.572L32.4358 93.8594Z" fill="white"/>
<path d="M32.4358 56.3203V93.8423L0 75.0333L32.4358 56.3203Z" fill="white"/>
<path d="M32.4358 93.8871L0 112.6V75.0781L32.4358 93.8871Z" fill="white"/>
</svg>
